<svg xmlns="http://www.w3.org/2000/svg" viewBox="0 0 6466 1796">
<defs>
<g id="kstack-glyphs">
<path d="M100 0V-1540H416V-653H444L784 -1077H1157L715 -561L1180 0H807L441 -460H416V0Z" transform="translate(0,0)"/>
<path d="M472 16Q376 16 288.0 -17.0Q200 -50 133.5 -110.5Q67 -171 33 -252L281 -361Q306 -315 356.0 -272.5Q406 -230 474 -230Q527 -230 561.0 -257.0Q595 -284 595 -318Q595 -357 555.5 -381.5Q516 -406 462.5 -421.5Q409 -437 365 -450Q289 -473 221.5 -513.5Q154 -554 112.0 -617.0Q70 -680 70 -770Q70 -865 119.0 -937.5Q168 -1010 254.0 -1051.0Q340 -1092 450 -1092Q587 -1092 696.5 -1029.0Q806 -966 852 -862L609 -757Q590 -789 553.5 -819.0Q517 -849 461 -849Q414 -849 383.0 -825.0Q352 -801 352 -765Q352 -729 383.0 -706.5Q414 -684 462.0 -669.0Q510 -654 562 -638Q602 -627 655.0 -606.5Q708 -586 758.5 -551.0Q809 -516 842.5 -461.0Q876 -406 876 -326Q876 -225 821.0 -148.0Q766 -71 674.0 -27.5Q582 16 472 16Z" transform="translate(1174,0)"/>
<path d="M593 16Q394 16 297.0 -94.5Q200 -205 200 -378V-814H20V-1076H200V-1386H516V-1076H765V-814H516V-386Q516 -317 549.5 -286.5Q583 -256 632 -256Q655 -256 677.0 -262.0Q699 -268 716 -277L818 -28Q773 -6 713.5 5.0Q654 16 593 16Z" transform="translate(2091,0)"/>
<path d="M418 16Q308 16 225.5 -28.0Q143 -72 97.0 -146.5Q51 -221 51 -312Q51 -457 167.5 -551.0Q284 -645 495 -645H698V-699Q698 -762 651.5 -799.0Q605 -836 521 -836Q449 -836 364.5 -812.5Q280 -789 224 -754L119 -992Q179 -1027 295.0 -1059.5Q411 -1092 556 -1092Q707 -1092 796.0 -1054.0Q885 -1016 928.5 -956.0Q972 -896 985.0 -829.0Q998 -762 998 -703V-379Q998 -324 1011.5 -295.5Q1025 -267 1060 -256L1084 -248L973 16L936 4Q866 -19 822.0 -52.5Q778 -86 758 -123H754Q712 -66 621.5 -25.0Q531 16 418 16ZM498 -221Q536 -221 586.5 -236.0Q637 -251 675.0 -286.0Q713 -321 713 -380V-447H533Q356 -447 356 -332Q356 -280 396.0 -250.5Q436 -221 498 -221Z" transform="translate(2924,0)"/>
<path d="M628 12Q468 12 336.5 -61.5Q205 -135 127.0 -260.5Q49 -386 49 -542Q49 -658 93.0 -758.0Q137 -858 215.5 -933.0Q294 -1008 397.0 -1050.0Q500 -1092 617 -1092Q708 -1092 794.5 -1065.5Q881 -1039 950 -993L834 -739Q793 -777 740.0 -798.0Q687 -819 625 -819Q496 -819 423.0 -737.0Q350 -655 350 -543Q350 -464 385.5 -400.0Q421 -336 482.5 -298.5Q544 -261 623 -261Q689 -261 749.0 -284.0Q809 -307 838 -334L951 -75Q894 -40 810.0 -14.0Q726 12 628 12Z" transform="translate(4056,0)"/>
<path d="M100 0V-1540H416V-653H444L784 -1077H1157L715 -561L1180 0H807L441 -460H416V0Z" transform="translate(5032,0)"/>
</g>
<mask id="b0" maskUnits="userSpaceOnUse"><rect x="0" y="100.0" width="6466" height="196.0" fill="white"/></mask>
<mask id="b1" maskUnits="userSpaceOnUse"><rect x="0" y="326.7" width="6466" height="196.0" fill="white"/></mask>
<mask id="b2" maskUnits="userSpaceOnUse"><rect x="0" y="553.3" width="6466" height="196.0" fill="white"/></mask>
<mask id="b3" maskUnits="userSpaceOnUse"><rect x="0" y="780.0" width="6466" height="196.0" fill="white"/></mask>
<mask id="b4" maskUnits="userSpaceOnUse"><rect x="0" y="1006.6" width="6466" height="196.0" fill="white"/></mask>
<mask id="b5" maskUnits="userSpaceOnUse"><rect x="0" y="1233.3" width="6466" height="196.0" fill="white"/></mask>
<mask id="b6" maskUnits="userSpaceOnUse"><rect x="0" y="1460.0" width="6466" height="196.0" fill="white"/></mask>
</defs>
<g mask="url(#b0)">
<use href="#kstack-glyphs" transform="translate(96.0,1656.0)" fill="#CCCCCC" stroke="#CCCCCC" stroke-width="90" stroke-linejoin="miter" stroke-miterlimit="10" stroke-linecap="butt"/>
<use href="#kstack-glyphs" transform="translate(80.0,1640.0)" fill="#222222" stroke="#222222" stroke-width="120" stroke-linejoin="miter" stroke-miterlimit="10" stroke-linecap="butt"/>
<use href="#kstack-glyphs" transform="translate(80.0,1640.0)" fill="#F0F0F0" stroke="#F0F0F0" stroke-width="90" stroke-linejoin="miter" stroke-miterlimit="10" stroke-linecap="butt"/>
</g>
<g mask="url(#b1)">
<use href="#kstack-glyphs" transform="translate(104.0,1664.0)" fill="#AEAEAE" stroke="#AEAEAE" stroke-width="90" stroke-linejoin="miter" stroke-miterlimit="10" stroke-linecap="butt"/>
<use href="#kstack-glyphs" transform="translate(80.0,1640.0)" fill="#222222" stroke="#222222" stroke-width="120" stroke-linejoin="miter" stroke-miterlimit="10" stroke-linecap="butt"/>
<use href="#kstack-glyphs" transform="translate(80.0,1640.0)" fill="#E0E0E0" stroke="#E0E0E0" stroke-width="90" stroke-linejoin="miter" stroke-miterlimit="10" stroke-linecap="butt"/>
</g>
<g mask="url(#b2)">
<use href="#kstack-glyphs" transform="translate(112.0,1672.0)" fill="#848484" stroke="#848484" stroke-width="90" stroke-linejoin="miter" stroke-miterlimit="10" stroke-linecap="butt"/>
<use href="#kstack-glyphs" transform="translate(80.0,1640.0)" fill="#222222" stroke="#222222" stroke-width="120" stroke-linejoin="miter" stroke-miterlimit="10" stroke-linecap="butt"/>
<use href="#kstack-glyphs" transform="translate(80.0,1640.0)" fill="#BCBCBC" stroke="#BCBCBC" stroke-width="90" stroke-linejoin="miter" stroke-miterlimit="10" stroke-linecap="butt"/>
</g>
<g mask="url(#b3)">
<use href="#kstack-glyphs" transform="translate(120.0,1680.0)" fill="#5C5C5C" stroke="#5C5C5C" stroke-width="90" stroke-linejoin="miter" stroke-miterlimit="10" stroke-linecap="butt"/>
<use href="#kstack-glyphs" transform="translate(80.0,1640.0)" fill="#222222" stroke="#222222" stroke-width="120" stroke-linejoin="miter" stroke-miterlimit="10" stroke-linecap="butt"/>
<use href="#kstack-glyphs" transform="translate(80.0,1640.0)" fill="#949494" stroke="#949494" stroke-width="90" stroke-linejoin="miter" stroke-miterlimit="10" stroke-linecap="butt"/>
</g>
<g mask="url(#b4)">
<use href="#kstack-glyphs" transform="translate(112.0,1672.0)" fill="#444444" stroke="#444444" stroke-width="90" stroke-linejoin="miter" stroke-miterlimit="10" stroke-linecap="butt"/>
<use href="#kstack-glyphs" transform="translate(80.0,1640.0)" fill="#222222" stroke="#222222" stroke-width="120" stroke-linejoin="miter" stroke-miterlimit="10" stroke-linecap="butt"/>
<use href="#kstack-glyphs" transform="translate(80.0,1640.0)" fill="#6C6C6C" stroke="#6C6C6C" stroke-width="90" stroke-linejoin="miter" stroke-miterlimit="10" stroke-linecap="butt"/>
</g>
<g mask="url(#b5)">
<use href="#kstack-glyphs" transform="translate(104.0,1664.0)" fill="#2E2E2E" stroke="#2E2E2E" stroke-width="90" stroke-linejoin="miter" stroke-miterlimit="10" stroke-linecap="butt"/>
<use href="#kstack-glyphs" transform="translate(80.0,1640.0)" fill="#222222" stroke="#222222" stroke-width="120" stroke-linejoin="miter" stroke-miterlimit="10" stroke-linecap="butt"/>
<use href="#kstack-glyphs" transform="translate(80.0,1640.0)" fill="#4C4C4C" stroke="#4C4C4C" stroke-width="90" stroke-linejoin="miter" stroke-miterlimit="10" stroke-linecap="butt"/>
</g>
<g mask="url(#b6)">
<use href="#kstack-glyphs" transform="translate(96.0,1656.0)" fill="#1C1C1C" stroke="#1C1C1C" stroke-width="90" stroke-linejoin="miter" stroke-miterlimit="10" stroke-linecap="butt"/>
<use href="#kstack-glyphs" transform="translate(80.0,1640.0)" fill="#111111" stroke="#111111" stroke-width="120" stroke-linejoin="miter" stroke-miterlimit="10" stroke-linecap="butt"/>
<use href="#kstack-glyphs" transform="translate(80.0,1640.0)" fill="#2E2E2E" stroke="#2E2E2E" stroke-width="90" stroke-linejoin="miter" stroke-miterlimit="10" stroke-linecap="butt"/>
</g>
</svg>